<svg xmlns="http://www.w3.org/2000/svg" viewBox="0 0 155.17 206.36"><defs><style>.cls-1{fill:none;stroke:#fff;stroke-miterlimit:10;stroke-width:2px;}.cls-2{fill:#fff;}</style></defs><title>Asset 2</title><g id="Layer_2" data-name="Layer 2"><g id="Layer_1-2" data-name="Layer 1"><polyline class="cls-1" points="147.8 115.58 146.71 115.58 133.41 115.58 120.11 115.58 106.81 115.58 93.51 115.58 81.08 115.58"/><polyline class="cls-1" points="144.22 128.87 133.41 128.87 120.11 128.87 106.81 128.87 93.51 128.87 83.65 128.87"/><polyline class="cls-1" points="140.34 142.16 133.41 142.16 120.11 142.16 106.81 142.16 93.51 142.16 86.94 142.16"/><polyline class="cls-1" points="136.03 155.47 133.41 155.47 120.11 155.47 106.81 155.47 93.51 155.47 91.16 155.47"/><polyline class="cls-1" points="130.97 168.76 120.11 168.76 106.81 168.76 96.94 168.76"/><polyline class="cls-1" points="123.99 182.06 120.11 182.06 106.81 182.06 106.4 182.06"/><polyline class="cls-1" points="133.41 103.3 133.41 115.58 133.41 128.87 133.41 142.16 133.41 155.47 133.41 162.68"/><polyline class="cls-1" points="120.11 104.22 120.11 115.58 120.11 128.87 120.11 142.16 120.11 155.47 120.11 168.76 120.11 182.06 120.11 186.19"/><polyline class="cls-1" points="106.81 105.14 106.81 115.58 106.81 128.87 106.81 142.16 106.81 155.47 106.81 168.76 106.81 182.06 106.81 182.44"/><polyline class="cls-1" points="93.51 106.08 93.51 115.58 93.51 128.87 93.51 142.16 93.51 155.47 93.51 161.44"/><line class="cls-1" x1="80.21" y1="110.08" x2="80.21" y2="106.99"/><path class="cls-1" d="M151.23,102.06a1.6,1.6,0,0,0,0,.21q-1.74,7-3.38,13.3c-.36,1.42-.73,2.78-1.09,4.13-.85,3.2-1.68,6.25-2.49,9.17-1.35,4.82-2.64,9.23-3.88,13.29-1.52,5-3,9.37-4.31,13.3-.91,2.61-1.78,5-2.62,7.22s-1.66,4.25-2.44,6.08a71,71,0,0,1-7,13.31,17.44,17.44,0,0,1-3.88,4.12,7,7,0,0,1-3.8,1.37,7.38,7.38,0,0,1-3.53-1,23.7,23.7,0,0,1-6-4.13l-.41-.37a51.59,51.59,0,0,1-9.46-13.31c-1.22-2.32-2.36-4.77-3.43-7.32-.82-1.94-1.6-3.94-2.35-6-1.59-4.38-3-8.89-4.22-13.3-1.28-4.6-2.37-9.12-3.29-13.29-1.11-5.08-2-9.66-2.57-13.3-.37-2.2-.66-4.07-.87-5.49-.29-2-.42-3.06-.42-3.06l.42,0,13.3-.93,26.6-1.86,13.3-.92,13.3-.92,1.36-.1Z"/><path class="cls-2" d="M10.7,46.32s.92-23.23,21.71-24.91c0,0,14.06-.31,19.11,18S59.31,66,59.31,66s3.06,5.2-2.29,14.83L0,204.08H23.39s5.35,1.07,13.76-23.54L69.4,107.78,83,166.48s9.32,42.65,30,39.59c0,0,17.42,4.13,23.08-18.65,0,0,16.9-73.49,19.12-82.61L151,99.66s-19.52,87.45-33.58,86.23c0,0-15.44,6.88-27.06-35.46L68.48,57.94,61.91,31S53.66-.45,33,0C33,0,12.65,1.2,8.68,25.68l-.12.77L6,46Z"/></g></g></svg>